<svg width="30" height="29" viewBox="0 0 30 29" fill="none" xmlns="http://www.w3.org/2000/svg">
<rect width="2.09104" height="25.5589" rx="1.04552" transform="matrix(0.959008 -0.28338 0.236103 0.971728 4.15212 0.59259)" fill="#6D6D6D"/>
<path d="M29.7432 5.123C29.8444 4.72225 29.6894 4.28863 29.3544 4.03496V4.03496C29.1673 3.8933 28.9405 3.82097 28.7132 3.83046L28.6779 3.83193C28.2168 3.85118 27.8316 4.17086 27.7209 4.62618L24.8846 16.2995C24.7785 16.7362 24.9766 17.2038 25.3668 17.4375V17.4375C25.9254 17.7723 26.6202 17.4918 26.7777 16.8681L29.7432 5.123Z" fill="#6D6D6D"/>
<path d="M25.5095 17.5526C26.3122 17.5526 26.8656 16.7479 26.5784 15.9983V15.9983C26.4088 15.5555 25.9837 15.2631 25.5095 15.2631L10.141 15.2631C9.50877 15.2631 8.99626 15.7757 8.99626 16.4079V16.4079C8.99626 17.0401 9.50877 17.5526 10.141 17.5526L25.5095 17.5526Z" fill="#6D6D6D"/>
<rect width="2.28947" height="20.0686" rx="1.14474" transform="matrix(0 -1 -1 0 27.6808 11.4474)" fill="#6D6D6D"/>
<path d="M5.98434 2.28949C6.13962 2.28949 6.28768 2.22388 6.39198 2.10885V2.10885C6.50686 1.98217 6.55631 1.80928 6.52579 1.64101L6.44575 1.19967C6.31978 0.505047 5.71492 1.60336e-05 5.00896 1.60336e-05L1.14474 1.60336e-05C0.512518 1.60336e-05 1.3411e-06 0.512532 1.3411e-06 1.14475V1.14475C1.3411e-06 1.77697 0.512518 2.28949 1.14474 2.28949L5.98434 2.28949Z" fill="#6D6D6D"/>
<path d="M28.3857 6.10525C28.543 6.10525 28.6807 6.21066 28.7217 6.36244V6.36244C28.8149 6.70724 29.305 6.70465 29.3946 6.35888L29.7343 5.04768C29.7493 4.9898 29.7569 4.93025 29.7569 4.87046V4.83112C29.7569 4.27036 29.3023 3.81577 28.7415 3.81577L6.68098 3.81577C6.04876 3.81577 5.53624 4.32829 5.53624 4.96051V4.96051C5.53624 5.59273 6.04876 6.10525 6.68098 6.10525L28.3857 6.10525Z" fill="#6D6D6D"/>
<path d="M11.0259 25.1842C10.1344 25.1842 9.58503 24.2102 10.0462 23.4473V23.4473C10.2535 23.1043 10.6251 22.8947 11.0259 22.8947L24.4599 22.8947C25.0922 22.8947 25.6047 23.4072 25.6047 24.0395V24.0395C25.6047 24.6717 25.0922 25.1842 24.4599 25.1842L11.0259 25.1842Z" fill="#6D6D6D"/>
<ellipse cx="23.5287" cy="27.4737" rx="1.38404" ry="1.52632" fill="#6D6D6D"/>
<ellipse cx="11.7643" cy="27.4737" rx="1.38404" ry="1.52632" fill="#6D6D6D"/>
</svg>
