<svg width="58" height="42" viewBox="0 0 58 42" fill="none" xmlns="http://www.w3.org/2000/svg">
<path d="M29.0126 25.8361C15.2475 25.8361 15.8691 39.0832 10.223 37.0282C4.57701 34.9732 2.7138 25.8512 6.06144 16.6537C9.40908 7.4561 16.6999 1.6659 22.3459 3.72088C27.9919 5.77587 32.3603 16.6385 29.0126 25.8361Z" fill="#6D6D6D"/>
<path d="M28.9874 25.8361C42.7525 25.8361 42.1309 39.0832 47.777 37.0282C53.423 34.9732 55.2862 25.8512 51.9386 16.6537C48.5909 7.4561 41.3001 1.6659 35.6541 3.72088C30.008 5.77587 25.6397 16.6385 28.9874 25.8361Z" fill="#6D6D6D"/>
<path d="M29.1915 18.8996C18.4314 18.8996 12.4945 14.7553 12.4945 7.62374C20.0854 -0.159848 24.7115 5.92822 29.1915 5.9282C33.6716 5.92818 38.0859 0.0519099 45.5308 7.62372C45.5308 14.7553 39.9517 18.8996 29.1915 18.8996Z" fill="#6D6D6D"/>
<circle cx="18.7952" cy="15.6318" r="6.14136" fill="white"/>
<circle cx="18.7952" cy="15.6318" r="6.14136" fill="white"/>
<circle cx="18.7952" cy="15.6318" r="4.44719" fill="black"/>
<circle cx="18.7952" cy="15.6318" r="4.44719" fill="#6D6D6D"/>
<circle cx="40.3016" cy="12.2382" r="1.4824" fill="black"/>
<circle cx="40.3016" cy="12.2382" r="1.4824" fill="black"/>
<circle cx="40.3016" cy="19.0149" r="1.4824" fill="black"/>
<circle cx="40.3016" cy="19.0149" r="1.4824" fill="black"/>
<circle cx="36.9133" cy="15.6265" r="1.4824" fill="black"/>
<circle cx="36.9133" cy="15.6265" r="1.4824" fill="black"/>
<circle cx="43.69" cy="15.6265" r="1.4824" fill="black"/>
<circle cx="43.69" cy="15.6265" r="1.4824" fill="black"/>
</svg>
