<svg width="42" height="25" viewBox="0 0 42 25" fill="none" xmlns="http://www.w3.org/2000/svg">
<path d="M33.8708 10.5616C33.8708 11.9609 32.8726 12.9502 31.8104 12.9502C30.7482 12.9502 29.75 11.9609 29.75 10.5616C29.75 9.16235 30.7482 8.17297 31.8104 8.17297C32.8726 8.17297 33.8708 9.16235 33.8708 10.5616Z" fill="white" stroke="black" stroke-width="1.5"/>
<path d="M9.54268 10.5609C9.54268 11.8778 8.47171 12.9488 7.14634 12.9488C5.82098 12.9488 4.75 11.8778 4.75 10.5609C4.75 9.24397 5.82098 8.17297 7.14634 8.17297C8.47171 8.17297 9.54268 9.24397 9.54268 10.5609Z" fill="white" stroke="black" stroke-width="1.5"/>
<rect x="0.996197" y="0.462643" width="4.84522" height="15.1878" rx="2.42261" transform="matrix(0.950983 -0.309242 0.37728 0.926099 10.85 9.88767)" fill="white" stroke="black" stroke-width="1.5"/>
<path d="M10.0914 8.44155L27.8704 3.25954C29.3103 2.83985 30.75 3.91983 30.75 5.41965V15.7837C30.75 17.2835 29.3103 18.3635 27.8704 17.9438L10.0914 12.7618C7.93088 12.1321 7.93089 9.07127 10.0914 8.44155Z" fill="white" stroke="black" stroke-width="1.5"/>
<rect x="-0.104946" y="0.393821" width="0.606663" height="4.38443" rx="0.303331" transform="matrix(0.542753 0.839892 -0.888732 0.458427 39.4207 4.61612)" fill="black" stroke="black" stroke-width="0.606663"/>
<rect x="0.434214" y="-0.11571" width="0.606663" height="4.38443" rx="0.303331" transform="matrix(0.542753 -0.839892 0.888732 0.458427 34.9843 14.1341)" fill="black" stroke="black" stroke-width="0.606663"/>
<rect x="36.1478" y="10.5575" width="0.588356" height="4.5336" rx="0.294178" transform="rotate(-90 36.1478 10.5575)" fill="black" stroke="black" stroke-width="0.588356"/>
<rect x="7.5" y="6.99512" width="3" height="7.35085" rx="1.5" fill="white" stroke="black"/>
<rect width="2.54219" height="7.43926" rx="1.2711" transform="matrix(0.365173 0.930939 -0.94743 0.319964 23.0482 6.49512)" fill="black"/>
</svg>
