<svg width="32" height="28" viewBox="0 0 32 28" fill="none" xmlns="http://www.w3.org/2000/svg">
<rect x="1" y="1" width="30" height="25.5" rx="4" fill="white" stroke="black" stroke-width="2"/>
<rect x="2" y="1" width="28" height="5" fill="black"/>
<path d="M10.4383 9.95158L11.2044 9.3088C11.6486 8.93604 12.3109 8.99399 12.6836 9.43822L20.1226 18.3036C20.3877 18.6196 20.4174 19.0091 20.2352 19.2784C20.0535 19.5469 19.8259 19.828 19.5633 20.0484C19.3006 20.2688 18.9842 20.4441 18.6883 20.5764C18.3915 20.7091 18.013 20.6123 17.7479 20.2963L10.3089 11.4309C9.93615 10.9866 9.99409 10.3243 10.4383 9.95158Z" fill="white" stroke="black" stroke-width="0.9"/>
<path d="M21.4595 22.3083L17.999 21.2957L17.3562 20.5297L20.4204 17.9585L21.0632 18.7246L21.4595 22.3083Z" fill="black"/>
<path d="M11.6328 12.9309L13.9309 11.0025" stroke="black"/>
</svg>
