<svg width="41" height="29" viewBox="0 0 41 29" fill="none" xmlns="http://www.w3.org/2000/svg">
<path d="M20.1751 17.9426C10.603 17.9426 11.0352 27.1425 7.109 25.7154C3.18281 24.2882 1.88715 17.9532 4.21506 11.5656C6.54298 5.17812 11.6129 1.15693 15.5391 2.58408C19.4653 4.01123 22.503 11.5551 20.1751 17.9426Z" fill="#6D6D6D"/>
<path d="M20.1575 17.9426C29.7296 17.9426 29.2974 27.1425 33.2236 25.7154C37.1498 24.2882 38.4454 17.9532 36.1175 11.5656C33.7896 5.17812 28.7197 1.15693 24.7935 2.58408C20.8673 4.01123 17.8296 11.5551 20.1575 17.9426Z" fill="#6D6D6D"/>
<path d="M20.2995 13.1253C12.817 13.1253 8.68856 10.2472 8.68856 5.29451C13.9672 -0.111035 17.1841 4.11701 20.2995 4.117C23.4149 4.11698 26.4845 0.0360271 31.6616 5.2945C31.6616 10.2472 27.782 13.1253 20.2995 13.1253Z" fill="#6D6D6D"/>
<ellipse cx="13.07" cy="10.856" rx="4.27063" ry="4.26505" fill="white"/>
<ellipse cx="13.07" cy="10.856" rx="4.27063" ry="4.26505" fill="white"/>
<ellipse cx="13.07" cy="10.856" rx="3.09253" ry="3.08849" fill="black"/>
<ellipse cx="13.07" cy="10.856" rx="3.09253" ry="3.08849" fill="#6D6D6D"/>
<ellipse cx="28.0253" cy="8.49919" rx="1.03084" ry="1.0295" fill="black"/>
<ellipse cx="28.0253" cy="8.49919" rx="1.03084" ry="1.0295" fill="black"/>
<ellipse cx="28.0253" cy="13.2055" rx="1.03084" ry="1.0295" fill="black"/>
<ellipse cx="28.0253" cy="13.2055" rx="1.03084" ry="1.0295" fill="black"/>
<ellipse cx="25.6691" cy="10.8523" rx="1.03084" ry="1.0295" fill="black"/>
<ellipse cx="25.6691" cy="10.8523" rx="1.03084" ry="1.0295" fill="black"/>
<ellipse cx="30.3815" cy="10.8523" rx="1.03084" ry="1.0295" fill="black"/>
<ellipse cx="30.3815" cy="10.8523" rx="1.03084" ry="1.0295" fill="black"/>
</svg>
