<svg width="30" height="23" viewBox="0 0 30 23" fill="none" xmlns="http://www.w3.org/2000/svg">
<rect y="1.66669" width="30" height="7.5" rx="2" fill="#868686"/>
<path d="M0 1.13353C0 0.507498 0.507498 0 1.13353 0H14.2883C14.9243 0 15.4398 0.515564 15.4398 1.15154V3.31132C15.4398 4.17269 14.2412 4.38437 13.9462 3.57511V3.57511C13.8353 3.27108 13.5462 3.06878 13.2226 3.06878H2.23219C1.90119 3.06878 1.60713 3.28009 1.50155 3.5938V3.5938C1.22302 4.42144 0 4.22116 0 3.34791V1.13353Z" fill="#868686"/>
<path d="M0 7C0 5.89543 0.895431 5 2 5H28C29.1046 5 30 5.89543 30 7V21C30 22.1046 29.1046 23 28 23H2C0.89543 23 0 22.1046 0 21V7Z" fill="#535353"/>
</svg>
