<svg width="32" height="28" viewBox="0 0 32 28" fill="none" xmlns="http://www.w3.org/2000/svg">
<rect x="10.0554" y="3.10132" width="3.29684" height="19.8979" rx="1.64842" fill="black"/>
<rect x="28.4628" y="0.969482" width="3.29684" height="18.9504" rx="1" fill="black"/>
<path d="M30.0156 0.220276C30.7559 0.107716 31.4895 0.569772 31.7118 1.28878L31.7198 1.31458C31.7463 1.40011 31.7632 1.48779 31.7702 1.57604V1.57604C31.819 2.18379 31.3996 2.71005 30.7931 2.80226L12.0264 5.65538C11.2966 5.76632 10.5852 5.27002 10.4373 4.54687V4.54687C10.2894 3.82371 10.7611 3.14755 11.4908 3.0366L30.0156 0.220276Z" fill="black"/>
<path d="M29.7958 4.70239L30.3314 7.32117L11.2004 10.2297L10.6649 7.61088L29.7958 4.70239Z" fill="black"/>
<path d="M11.8646 21.7383C11.8646 23.8909 9.76085 25.9999 6.68231 25.9999C3.60377 25.9999 1.5 23.8909 1.5 21.7383C1.5 19.5858 3.60377 17.4768 6.68231 17.4768C9.76085 17.4768 11.8646 19.5858 11.8646 21.7383Z" fill="white" stroke="black" stroke-width="3"/>
<path d="M30.2596 19.0794C30.2596 21.232 28.1558 23.3409 25.0773 23.3409C21.9987 23.3409 19.895 21.232 19.895 19.0794C19.895 16.9268 21.9987 14.8179 25.0773 14.8179C28.1558 14.8179 30.2596 16.9268 30.2596 19.0794Z" fill="white" stroke="black" stroke-width="3"/>
</svg>
