<svg width="46" height="30" viewBox="0 0 46 30" fill="none" xmlns="http://www.w3.org/2000/svg">
<path d="M35.7528 12.5962C35.7528 14.4569 34.5158 15.801 33.1747 15.801C31.8337 15.801 30.5967 14.4569 30.5967 12.5962C30.5967 10.7355 31.8337 9.39143 33.1747 9.39143C34.5158 9.39143 35.7528 10.7355 35.7528 12.5962Z" fill="white" stroke="black"/>
<path d="M9.91823 12.655C9.91823 14.4591 8.56589 15.8589 6.97224 15.8589C5.37858 15.8589 4.02625 14.4591 4.02625 12.655C4.02625 10.8509 5.37858 9.4511 6.97224 9.4511C8.56589 9.4511 9.91823 10.8509 9.91823 12.655Z" fill="white" stroke="black"/>
<rect x="0.648653" y="0.302333" width="6.00299" height="18.502" rx="3.00149" transform="matrix(0.943723 -0.330737 0.353584 0.935403 11.9506 11.5013)" fill="white" stroke="black"/>
<path d="M9.26122 14.8989C6.92684 14.1657 6.92684 10.862 9.26122 10.1288L30.7508 3.37835C32.3613 2.87243 34 4.07529 34 5.76344V19.2643C34 20.9524 32.3613 22.1553 30.7508 21.6494L9.26122 14.8989Z" fill="white" stroke="black"/>
<rect x="-0.221202" y="0.434315" width="0.697082" height="6.88663" rx="0.348541" transform="matrix(0.319733 0.947508 -0.954382 0.298587 21.3885 9.19347)" fill="black" stroke="black" stroke-width="0.697082"/>
<rect x="-0.126149" y="0.471088" width="0.70127" height="4.85716" rx="0.350635" transform="matrix(0.514248 0.857641 -0.874022 0.485886 43.1947 5.44325)" fill="black" stroke="black" stroke-width="0.70127"/>
<rect x="0.486777" y="-0.130351" width="0.70127" height="4.85716" rx="0.350635" transform="matrix(0.514248 -0.857641 0.874022 0.485886 38.3365 16.6776)" fill="black" stroke="black" stroke-width="0.70127"/>
<rect x="39.6156" y="12.4621" width="0.694481" height="4.91528" rx="0.347241" transform="rotate(-90 39.6156 12.4621)" fill="black" stroke="black" stroke-width="0.694481"/>
<rect x="6.91113" y="8.67944" width="3.96864" height="8.10542" rx="1.98432" fill="white" stroke="black"/>
</svg>
