<svg width="12" height="22" viewBox="0 0 12 22" fill="none" xmlns="http://www.w3.org/2000/svg">
<path d="M5.98535 16.3125H5.38477C5.45312 15.082 5.60449 14.0664 5.83887 13.2656C6.08301 12.4551 6.58105 11.332 7.33301 9.89648C7.91895 8.79297 8.2998 7.94824 8.47559 7.3623C8.65137 6.7666 8.73926 6.16602 8.73926 5.56055C8.73926 4.32031 8.40723 3.33398 7.74316 2.60156C7.08887 1.86914 6.2832 1.50293 5.32617 1.50293C4.47656 1.50293 3.80762 1.70313 3.31934 2.10352C2.83105 2.50391 2.58691 2.93848 2.58691 3.40723C2.58691 3.76855 2.7334 4.21289 3.02637 4.74023C3.31934 5.26758 3.46582 5.66797 3.46582 5.94141C3.46582 6.29297 3.35352 6.59082 3.12891 6.83496C2.9043 7.06934 2.63086 7.18652 2.30859 7.18652C1.89844 7.18652 1.52246 6.98633 1.18066 6.58594C0.848633 6.17578 0.682617 5.60937 0.682617 4.88672C0.682617 3.7832 1.15625 2.80664 2.10352 1.95703C3.05078 1.10742 4.33496 0.682617 5.95605 0.682617C7.96777 0.682617 9.44727 1.26855 10.3945 2.44043C11.0977 3.2998 11.4492 4.25195 11.4492 5.29688C11.4492 6.00977 11.2881 6.74219 10.9658 7.49414C10.6533 8.24609 10.0527 9.12988 9.16406 10.1455C7.74805 11.7471 6.87891 12.8848 6.55664 13.5586C6.24414 14.2227 6.05371 15.1406 5.98535 16.3125ZM5.78027 18.1289C6.23926 18.1289 6.625 18.29 6.9375 18.6123C7.25977 18.9248 7.4209 19.3105 7.4209 19.7695C7.4209 20.2188 7.25977 20.6045 6.9375 20.9268C6.61523 21.2393 6.22949 21.3955 5.78027 21.3955C5.33105 21.3955 4.94531 21.2393 4.62305 20.9268C4.31055 20.6045 4.1543 20.2188 4.1543 19.7695C4.1543 19.3105 4.31055 18.9248 4.62305 18.6123C4.94531 18.29 5.33105 18.1289 5.78027 18.1289Z" fill="black"/>
</svg>
